<?xml version="1.0" encoding="UTF-8" standalone="no"?>
<!-- Created with Inkscape (http://www.inkscape.org/) -->

<svg
   width="58.914764mm"
   height="10.5551mm"
   viewBox="0 0 58.914764 10.5551"
   version="1.1"
   id="svg5"
   inkscape:version="1.2 (dc2aedaf03, 2022-05-15)"
   sodipodi:docname="bloxbuslogo2024.svg"
   xmlns:inkscape="http://www.inkscape.org/namespaces/inkscape"
   xmlns:sodipodi="http://sodipodi.sourceforge.net/DTD/sodipodi-0.dtd"
   xmlns="http://www.w3.org/2000/svg"
   xmlns:svg="http://www.w3.org/2000/svg">
  <sodipodi:namedview
     id="namedview7"
     pagecolor="#ffffff"
     bordercolor="#000000"
     borderopacity="0.25"
     inkscape:showpageshadow="2"
     inkscape:pageopacity="0.0"
     inkscape:pagecheckerboard="0"
     inkscape:deskcolor="#d1d1d1"
     inkscape:document-units="mm"
     showgrid="false"
     inkscape:zoom="4"
     inkscape:cx="58.25"
     inkscape:cy="59"
     inkscape:window-width="1920"
     inkscape:window-height="1009"
     inkscape:window-x="-8"
     inkscape:window-y="-8"
     inkscape:window-maximized="1"
     inkscape:current-layer="layer1" />
  <defs
     id="defs2" />
  <g
     inkscape:label="Layer 1"
     inkscape:groupmode="layer"
     id="layer1"
     transform="translate(-23.911727,-139.32237)">
    <path
       d="m 64.47853,144.34592 q 0.733777,0.254 1.199443,0.93133 0.479778,0.66322 0.479778,1.48167 0,1.35466 -1.001888,2.14489 -0.987777,0.77611 -2.624665,0.77611 h -3.541886 v -10.16 h 3.217331 q 1.580443,0 2.56822,0.74789 0.987777,0.73378 0.987777,2.07433 0,0.67734 -0.352778,1.21356 -0.338666,0.53622 -0.931332,0.79022 z m -3.781775,-3.40077 v 2.89277 h 1.53811 q 0.451555,0 0.860777,-0.0423 0.860777,-0.26811 0.860777,-1.32645 0,-0.70555 -0.451555,-1.11477 -0.437444,-0.40922 -1.185333,-0.40922 z m 2.102554,4.16277 h -2.102554 v 3.14678 h 1.904998 q 0.776111,0 1.255888,-0.42334 0.479778,-0.43744 0.479778,-1.15711 0,-0.71966 -0.423333,-1.143 -0.423333,-0.42333 -1.114777,-0.42333 z"
       style="font-weight:500;font-size:14.1111px;font-family:'Brother 1816';-inkscape-font-specification:'Brother 1816 Medium';letter-spacing:-1.27529px;fill:#0ea1cb;fill-opacity:1;fill-rule:evenodd;stroke-width:10;stroke-linejoin:round"
       id="path673" />
    <path
       d="m 73.490231,139.51992 h 1.777998 v 6.53344 q 0,1.74978 -1.086555,2.794 -1.072443,1.016 -3.005664,1.016 -1.904998,0 -2.991553,-1.016 -1.086555,-1.04422 -1.086555,-2.794 v -6.53344 h 1.763888 v 6.37822 q 0,1.10067 0.606777,1.72156 0.620888,0.60677 1.707443,0.60677 1.100666,0 1.707443,-0.60677 0.606778,-0.62089 0.606778,-1.72156 z"
       style="font-weight:500;font-size:14.1111px;font-family:'Brother 1816';-inkscape-font-specification:'Brother 1816 Medium';letter-spacing:-1.27529px;fill:#0ea1cb;fill-opacity:1;fill-rule:evenodd;stroke-width:10;stroke-linejoin:round"
       id="path675" />
    <path
       d="m 79.199939,149.86336 q -1.580443,0 -2.977442,-0.57855 v -1.73567 q 1.354666,0.69144 2.709331,0.73378 0.592666,0 1.015999,-0.11289 1.157111,-0.26811 1.157111,-1.08656 0,-0.59266 -0.465667,-0.97366 -0.465666,-0.39511 -1.665109,-0.81845 -1.509888,-0.53622 -2.187221,-1.24177 -0.663222,-0.70556 -0.663222,-1.86267 0,-1.31233 0.987777,-2.07433 0.987777,-0.77611 2.554109,-0.77611 1.382888,0 2.596443,0.508 v 1.66511 q -1.072444,-0.60678 -2.469443,-0.60678 -0.888999,0 -1.41111,0.33867 -0.52211,0.33866 -0.52211,0.91722 0,0.55033 0.465666,0.94544 0.465666,0.39511 1.622776,0.81845 1.523999,0.56444 2.201332,1.27 0.677333,0.69144 0.677333,1.82033 0,1.34055 -0.959555,2.10255 -0.959555,0.74789 -2.666998,0.74789 z"
       style="font-weight:500;font-size:14.1111px;font-family:'Brother 1816';-inkscape-font-specification:'Brother 1816 Medium';letter-spacing:-1.27529px;display:inline;fill:#0ea1cb;fill-opacity:1;fill-rule:evenodd;stroke-width:10;stroke-linejoin:round"
       id="path677" />
    <path
       d="m 53.486875,142.05286 1.516942,-2.53294 h 2.892776 l -3.02683,4.5085 z"
       id="path680"
       style="font-weight:800;font-size:14.1111px;font-family:'Brother 1816';-inkscape-font-specification:'Brother 1816 Ultra-Bold';letter-spacing:-1.27529px;display:inline;fill:#0ea1cb;fill-opacity:1;fill-rule:evenodd;stroke-width:10;stroke-linejoin:round"
       sodipodi:nodetypes="ccccc" />
    <path
       d="m 54.869763,145.08676 3.055052,4.59316 H 55.03204 l -1.545165,-2.57528 z"
       id="path1341"
       style="font-weight:800;font-size:14.1111px;font-family:'Brother 1816';-inkscape-font-specification:'Brother 1816 Ultra-Bold';letter-spacing:-1.27529px;display:inline;fill:#0ea1cb;fill-opacity:1;fill-rule:evenodd;stroke-width:10;stroke-linejoin:round"
       sodipodi:nodetypes="ccccc" />
    <path
       d="m 25.90117,149.67992 h -1.989443 v -10.16 h 1.989767 z"
       id="path665"
       style="font-weight:800;font-size:14.1111px;font-family:'Brother 1816';-inkscape-font-specification:'Brother 1816 Ultra-Bold';letter-spacing:-1.27529px;fill:#ffffff;fill-rule:evenodd;stroke-width:10;stroke-linejoin:round"
       sodipodi:nodetypes="ccccc" />
    <path
       d="m 38.610218,147.50681 v 2.17311 H 32.359 v -10.16 h 2.582332 v 7.98689 z"
       id="path667"
       style="font-weight:800;font-size:14.1111px;font-family:'Brother 1816';-inkscape-font-specification:'Brother 1816 Ultra-Bold';letter-spacing:-1.27529px;fill:#ffffff;fill-rule:evenodd;stroke-width:10;stroke-linejoin:round" />
    <path
       d="m 38.308607,144.59992 q 0,-2.21544 1.523999,-3.73944 1.53811,-1.53811 3.85233,-1.53811 2.328332,0 3.85233,1.53811 1.523999,1.524 1.523999,3.73944 0,2.22955 -1.523999,3.75355 -1.523998,1.524 -3.85233,1.524 -2.328332,0 -3.85233,-1.524 -1.523999,-1.524 -1.523999,-3.75355 z m 2.596442,0 q 0,1.21355 0.776111,2.07433 0.77611,0.84667 2.003776,0.84667 1.199444,0 1.989665,-0.84667 0.776111,-0.86078 0.776111,-2.07433 0,-1.19944 -0.776111,-2.06022 -0.77611,-0.86078 -1.989665,-0.86078 -1.227666,0 -2.003776,0.86078 -0.776111,0.86078 -0.776111,2.06022 z"
       id="path669"
       style="font-weight:800;font-size:14.1111px;font-family:'Brother 1816';-inkscape-font-specification:'Brother 1816 Ultra-Bold';letter-spacing:-1.27529px;fill:#ffffff;fill-rule:evenodd;stroke-width:10;stroke-linejoin:round" />
    <path
       d="m 54.340596,144.55759 c -1.176644,1.68794 -2.305471,3.40808 -3.443109,5.12233 h -2.892775 l 3.59833,-5.12233 -3.570108,-5.03767 h 2.906887 c 1.090213,1.70913 2.238589,3.3774 3.400775,5.03767 z"
       id="path671"
       style="font-weight:800;font-size:14.1111px;font-family:'Brother 1816';-inkscape-font-specification:'Brother 1816 Ultra-Bold';letter-spacing:-1.27529px;fill:#ffffff;fill-rule:evenodd;stroke-width:10;stroke-linejoin:round"
       sodipodi:nodetypes="ccccccc" />
    <path
       d="m 29.956114,144.34592 c 0.47037,0.13171 0.888867,0.41393 1.208719,0.84667 0.329259,0.43274 0.493888,0.92192 0.493888,1.46755 0,0.97837 -0.366889,1.72626 -1.100666,2.24367 -0.724369,0.51741 -1.730961,0.77611 -3.019775,0.77611 h -1.698637 v -10.16 h 1.421251 c 1.175925,0 2.13548,0.24459 2.878665,0.73378 0.743185,0.48919 1.114777,1.20885 1.114777,2.159 0,0.46096 -0.122296,0.86077 -0.366889,1.19944 -0.235185,0.33867 -0.54563,0.58326 -0.931333,0.73378 z m -4.118222,-2.76578 v 2.08845 m 0,0 h 1.573388 c 0.338667,0 0.59737,-0.047 0.776111,-0.14111 0.329259,-0.14111 0.493888,-0.43274 0.493888,-0.87489 0,-0.34807 -0.112889,-0.61148 -0.338666,-0.79022 -0.216371,-0.18815 -0.517408,-0.28223 -0.903111,-0.28223 h -1.60161 m 0,6.03956 h 1.841499 c 0.385703,0 0.700851,-0.0988 0.945444,-0.29634 0.244592,-0.19755 0.366888,-0.47507 0.366888,-0.83255 0,-0.36689 -0.117592,-0.64912 -0.352777,-0.84667 -0.225778,-0.19755 -0.526815,-0.29633 -0.903111,-0.29633 h -1.897943"
       id="path1513"
       style="font-weight:800;font-size:14.1111px;font-family:'Brother 1816';-inkscape-font-specification:'Brother 1816 Ultra-Bold';letter-spacing:-1.27529px;display:inline;fill:#ffffff;fill-rule:evenodd;stroke-width:10;stroke-linejoin:round"
       sodipodi:nodetypes="ccscsccssscccccscscsccssscsc" />
  </g>
</svg>
