<?xml version="1.0" encoding="UTF-8" standalone="no"?>
<!-- Created with Inkscape (http://www.inkscape.org/) -->

<svg
   width="335.1236mm"
   height="41.096706mm"
   viewBox="0 0 335.1236 41.096706"
   version="1.1"
   id="svg15752"
   xml:space="preserve"
   inkscape:version="1.2 (dc2aedaf03, 2022-05-15)"
   sodipodi:docname="PartofNG.svg"
   xmlns:inkscape="http://www.inkscape.org/namespaces/inkscape"
   xmlns:sodipodi="http://sodipodi.sourceforge.net/DTD/sodipodi-0.dtd"
   xmlns="http://www.w3.org/2000/svg"
   xmlns:svg="http://www.w3.org/2000/svg"><sodipodi:namedview
     id="namedview15754"
     pagecolor="#ffffff"
     bordercolor="#000000"
     borderopacity="0.25"
     inkscape:showpageshadow="2"
     inkscape:pageopacity="0.0"
     inkscape:pagecheckerboard="0"
     inkscape:deskcolor="#d1d1d1"
     inkscape:document-units="mm"
     showgrid="false"
     inkscape:zoom="1.4142136"
     inkscape:cx="241.83052"
     inkscape:cy="4.9497474"
     inkscape:window-width="1920"
     inkscape:window-height="1009"
     inkscape:window-x="-8"
     inkscape:window-y="-8"
     inkscape:window-maximized="1"
     inkscape:current-layer="text15875" /><defs
     id="defs15749" /><g
     inkscape:label="Layer 1"
     inkscape:groupmode="layer"
     id="layer1"
     transform="translate(29.271343,158.52854)"><g
       aria-label="part of"
       id="text15875"
       style="font-weight:500;font-size:42.3333px;font-family:'Brother 1816';-inkscape-font-specification:'Brother 1816 Medium';letter-spacing:-2.97127px;fill:#ffffff;fill-rule:evenodd;stroke-width:17.13;paint-order:markers stroke fill;stop-color:#000000"><path
         d="m -24.10668,-117.77974 h -5.164663 v -30.47998 h 4.74133 l 0.08467,1.98966 q 0,0.29634 -0.04233,0.762 0,0.46567 0,0.55034 l -0.04233,0.16933 h 0.08467 q 0.804332,-1.60867 2.793997,-2.83633 1.947332,-1.18533 4.36033,-1.18533 4.233331,0 7.027329,3.09033 2.8363308,3.09033 2.8363308,8.04332 0,4.99533 -2.7939978,8.08566 -2.793998,3.048 -6.942662,3.048 -2.243665,0 -4.148663,-1.016 -1.904999,-1.05833 -2.836331,-2.667 h -0.08467 q 0.127,0.55034 0.127,1.73567 z m 5.968995,-13.16566 q 2.582332,0 4.190997,-1.86267 1.608666,-1.86266 1.608666,-4.86833 0,-2.96333 -1.608666,-4.82599 -1.608665,-1.905 -4.190997,-1.905 -2.328331,0 -4.10633,1.778 -1.735665,1.73566 -1.735665,4.95299 0,3.175 1.735665,4.99533 1.820332,1.73567 4.10633,1.73567 z"
         id="path15877"
         style="fill:#525252;fill-opacity:1" /><path
         d="m -5.6996712,-142.62939 v -4.65667 q 2.8363312,-1.52399 7.6199943,-1.52399 4.6566631,0 6.9849947,2.11666 2.3706652,2.11667 2.3706652,6.18066 v 13.41966 H 6.5769862 l -0.084667,-2.20133 0.084667,-1.60867 h -0.084667 q -0.5079996,1.27 -2.3283315,2.83633 -1.8626653,1.524 -4.61432992,1.524 -2.96333108,0 -4.86832968,-1.69333 -1.8626653,-1.69333 -1.8626653,-4.61433 0,-3.89466 3.5983307,-5.67266 3.5559973,-1.778 9.7366593,-0.93134 v -0.80433 q 0,-4.14866 -5.0376629,-4.14866 -3.9793303,0 -6.8156611,1.778 z m 6.39232853,12.06499 q 2.24366497,0 3.76766387,-1.778 1.5663321,-1.73567 1.5663321,-4.064 -3.9793303,-0.635 -6.1383287,0.254 -2.1166651,0.889 -2.1166651,2.87867 0,1.22766 0.8043327,1.98966 0.80433278,0.71967 2.11666513,0.71967 z"
         id="path15879"
         style="fill:#525252;fill-opacity:1" /><path
         d="M 19.311363,-127.09307 H 14.1467 v -21.16665 h 4.74133 q 0.08467,2.286 0.08467,2.49766 v 1.48167 q 1.058332,-2.11667 2.709331,-3.302 1.693332,-1.22766 3.72533,-1.22766 0.931333,0 1.312333,0.127 v 4.99532 l -0.169333,-0.0423 q -0.211667,-0.0423 -0.508,-0.0847 -0.296333,-0.0423 -0.592666,-0.0423 -2.709332,0 -4.402664,2.286 -1.735665,2.32833 -1.735665,5.37633 z"
         id="path15881"
         style="fill:#525252;fill-opacity:1" /><path
         d="m 27.706579,-144.15339 v -4.10633 h 3.301998 v -6.35 h 4.995329 v 6.35 h 6.011329 v 4.10633 h -6.011329 v 9.69432 q 0,3.51367 2.920998,3.51367 1.777999,0 3.809997,-0.889 v 4.318 q -1.862665,0.97366 -5.079996,0.97366 -2.836331,0 -4.698996,-1.524 -1.820332,-1.56633 -1.989666,-4.61433 0,-0.21166 -0.04233,-1.016 0,-0.84666 0,-1.10066 v -9.35566 z"
         id="path15883"
         style="fill:#525252;fill-opacity:1" /><path
         d="m 61.134007,-148.81005 q 4.825996,0 7.95866,3.17499 3.132665,3.13267 3.132665,7.95866 0,4.78367 -3.132665,8.001 -3.132664,3.13266 -7.95866,3.13266 -4.783664,0 -7.958661,-3.175 -3.132664,-3.21733 -3.132664,-7.95866 0,-4.74133 3.132664,-7.95866 3.174997,-3.17499 7.958661,-3.17499 z m -4.444997,16.00198 q 1.777999,1.86267 4.444997,1.86267 2.666998,0 4.402663,-1.86267 1.777999,-1.905 1.777999,-4.86833 0,-2.96333 -1.777999,-4.82599 -1.735665,-1.905 -4.402663,-1.905 -2.666998,0 -4.444997,1.905 -1.735666,1.86266 -1.735666,4.82599 0,2.921 1.735666,4.86833 z"
         id="path15885"
         style="fill:#525252;fill-opacity:1" /><path
         d="m 72.048061,-144.15339 v -4.10633 h 3.090331 v -2.11667 q 0,-3.55599 2.201331,-5.63033 2.201332,-2.11666 6.011329,-2.11666 1.693332,0 2.709331,0.254 v 4.40266 q -1.015999,-0.254 -2.158998,-0.254 -1.820332,0 -2.920998,1.016 -1.058332,0.97367 -1.058332,2.83633 v 1.60867 h 5.291662 v 4.10633 h -5.079996 v 17.06032 h -5.164663 v -17.06032 z"
         id="path15887"
         style="fill:#525252;fill-opacity:1" /></g><g
       id="g16669"
       transform="matrix(1.6823635,0,0,1.6823635,206.04113,417.84371)"
       style="fill:#525252;fill-opacity:1"><path
         id="path16595"
         style="font-weight:500;font-size:26.8537px;font-family:'Brother 1816';-inkscape-font-specification:'Brother 1816 Medium';letter-spacing:-1.27794px;fill:#525252;fill-rule:evenodd;stroke-width:10.8662;paint-order:markers stroke fill;fill-opacity:1"
         d="m -63.963538,-342.15069 v 0.78806 l 2.710429,3.34399 12.617318,15.4311 h 1.403015 v -0.81236 l -0.0062,0.002 -3.150712,-3.884 5.17e-4,0.001 -12.158431,-14.86937 z m 15.117941,0 v 14.27975 l 1.612821,1.98954 v -16.26929 z m -15.117941,3.30987 v 16.25328 h 1.625741 v -14.27769 z"
         sodipodi:nodetypes="ccccccccccccccccccccc" /><path
         d="m -38.964892,-324.1217 q 1.481674,0 2.687993,-0.70806 1.206318,-0.72117 1.914375,-1.92749 0.708056,-1.21943 0.708056,-2.74044 0,-1.52101 -0.708056,-2.74044 -0.694945,-1.21943 -1.901263,-1.92749 -1.206319,-0.70805 -2.701105,-0.70805 -1.494786,0 -2.701105,0.70805 -1.206318,0.70806 -1.914375,1.92749 -0.708056,1.21943 -0.708056,2.74044 0,1.49479 0.694944,2.71422 0.708057,1.21943 1.914375,1.9406 1.206319,0.72117 2.714217,0.72117 z m 0,1.61279 q -1.888151,0 -3.46161,-0.95719 -1.573459,-0.95718 -2.517534,-2.54376 -0.944076,-1.59968 -0.944076,-3.48783 0,-1.90126 0.930964,-3.48783 0.944075,-1.58657 2.517534,-2.54376 1.573459,-0.95719 3.474722,-0.95719 1.888151,0 3.46161,0.95719 1.573459,0.94407 2.517534,2.54376 0.944076,1.58657 0.944076,3.48783 0,1.42923 -0.550711,2.71422 -0.537598,1.27188 -1.481674,2.22906 -0.930963,0.94408 -2.202842,1.49479 -1.27188,0.55071 -2.687993,0.55071 z"
         style="font-weight:500;font-size:26.8537px;font-family:'Brother 1816';-inkscape-font-specification:'Brother 1816 Medium';letter-spacing:-3.27554px;fill:#525252;fill-rule:evenodd;stroke-width:10.8662;paint-order:markers stroke fill;fill-opacity:1"
         id="path16597" /><path
         d="m -25.561767,-322.57447 h -1.271879 l -5.861135,-13.25639 1.770142,-0.0262 4.733489,10.73886 4.746601,-10.72574 h 1.757029 z"
         style="font-weight:500;font-size:26.8537px;font-family:'Brother 1816';-inkscape-font-specification:'Brother 1816 Medium';letter-spacing:-2.15106px;fill:#525252;fill-rule:evenodd;stroke-width:10.8662;paint-order:markers stroke fill;fill-opacity:1"
         id="path16599" /><path
         d="m -12.292927,-322.50891 q -1.888151,0 -3.46161,-0.95719 -1.573459,-0.95718 -2.517535,-2.54376 -0.944075,-1.58657 -0.944075,-3.48783 0,-1.90126 0.944075,-3.48783 0.944076,-1.59969 2.517535,-2.54376 1.573459,-0.95719 3.46161,-0.95719 1.311216,0 2.4519734,0.41959 1.1407578,0.40648 1.901263,0.93096 0.7605051,0.52449 0.9834118,0.93097 v -1.62591 h 1.5996834 v 13.25639 h -1.5996834 v -2.21595 q -0.2229067,0.39336 -0.9834118,0.91785 -0.7605052,0.52448 -1.901263,0.94407 -1.1407574,0.41959 -2.4519734,0.41959 z m 0,-1.61279 q 1.494786,0 2.6879922,-0.70806 1.2063186,-0.72117 1.9143752,-1.9406 0.7080565,-1.21943 0.7080565,-2.72733 0,-1.5079 -0.7080565,-2.72733 -0.6949444,-1.21943 -1.901263,-1.92749 -1.2063184,-0.72116 -2.7011044,-0.72116 -1.507899,0 -2.714217,0.70805 -1.193207,0.70806 -1.901263,1.92749 -0.708057,1.21943 -0.708057,2.74044 0,1.52101 0.708057,2.74044 0.708056,1.20632 1.914375,1.92749 1.206319,0.70806 2.701105,0.70806 z"
         style="font-weight:500;font-size:26.8537px;font-family:'Brother 1816';-inkscape-font-specification:'Brother 1816 Medium';letter-spacing:-0.121708px;fill:#525252;fill-rule:evenodd;stroke-width:10.8662;paint-order:markers stroke fill;fill-opacity:1"
         id="path16601" /><path
         d="m 14.425953,-325.3018 q -0.891627,0.83918 -1.652132,1.36367 -0.786729,0.55071 -1.861926,0.9703 -1.7832538,0.72116 -3.697629,0.72116 -2.7797776,0 -5.0744053,-1.37677 -2.28151559,-1.37678 -3.6451801,-3.68452 -1.3505523,-2.30774 -1.3505523,-5.11374 0,-2.81911 1.3505523,-5.12685 1.36366451,-2.30774 3.6451801,-3.67141 2.2946277,-1.37678 5.0744053,-1.37678 1.8881509,0 3.448498,0.60316 1.573459,0.60316 3.173142,1.88815 l -0.655608,0.85229 q -0.826066,-0.66872 -1.481674,-1.06208 -0.655608,-0.39336 -1.547234,-0.70806 -1.4292257,-0.48515 -2.937124,-0.48515 -2.4650858,0 -4.5105825,1.21943 -2.04549672,1.20632 -3.26492746,3.27804 -1.21943074,2.05861 -1.21943074,4.58926 0,2.50442 1.20631858,4.57614 1.21943074,2.05861 3.26492742,3.29115 2.0454968,1.21944 4.5236947,1.21944 1.6652442,0 3.251815,-0.61628 1.599684,-0.62938 2.884675,-1.82259 l 0.02623,-5.82179 1.075197,0.0131 z"
         style="font-weight:500;font-size:26.8537px;font-family:'Brother 1816';-inkscape-font-specification:'Brother 1816 Medium';letter-spacing:-1.34938px;fill:#525252;fill-rule:evenodd;stroke-width:10.8662;paint-order:markers stroke fill;fill-opacity:1"
         id="path16603" /><path
         d="m 17.036441,-322.83671 h -1.075197 v -6.3594 h -0.09178 l 0.09178,-0.18357 v -6.18894 h 1.075197 v 2.36019 q 0.839178,-1.53412 3.173142,-2.56998 v 1.18009 q -1.429225,0.73428 -2.268403,2.00616 -0.826066,1.25877 -0.891627,2.87156 l -0.01311,0.28847 z"
         style="font-weight:500;font-size:26.8537px;font-family:'Brother 1816';-inkscape-font-specification:'Brother 1816 Medium';letter-spacing:-3.77296px;fill:#525252;fill-rule:evenodd;stroke-width:10.8662;paint-order:markers stroke fill;fill-opacity:1"
         id="path16605" /><path
         d="m 25.720033,-323.85946 q 1.534123,0 2.806002,-0.74739 1.27188,-0.76051 2.019273,-2.03239 0.747393,-1.28499 0.747393,-2.85845 0,-1.57346 -0.747393,-2.84534 -0.747393,-1.28499 -2.019273,-2.03238 -1.258767,-0.76051 -2.806002,-0.76051 -1.547234,0 -2.819114,0.76051 -1.258767,0.74739 -2.019272,2.03238 -0.747393,1.27188 -0.747393,2.84534 0,1.54724 0.747393,2.83223 0.747393,1.28499 2.00616,2.04549 1.271879,0.76051 2.832226,0.76051 z m 0,1.08831 q -1.835702,0 -3.356712,-0.91785 -1.507899,-0.91785 -2.412637,-2.43886 -0.891627,-1.53413 -0.891627,-3.36983 0,-1.84881 0.891627,-3.36982 0.904738,-1.53413 2.412637,-2.43887 1.507898,-0.91785 3.356712,-0.91785 1.82259,0 3.330489,0.91785 1.52101,0.90474 2.425749,2.43887 0.904739,1.52101 0.904739,3.36982 0,1.37678 -0.524487,2.60932 -0.524486,1.21943 -1.429225,2.13728 -0.904739,0.91785 -2.12417,1.45545 -1.206318,0.52449 -2.583095,0.52449 z"
         style="font-weight:500;font-size:26.8537px;font-family:'Brother 1816';-inkscape-font-specification:'Brother 1816 Medium';letter-spacing:-1.82562px;fill:#525252;fill-rule:evenodd;stroke-width:10.8662;paint-order:markers stroke fill;fill-opacity:1"
         id="path16607" /><path
         d="m 38.763603,-322.84983 q -1.114533,0 -2.163506,-0.47203 -1.035861,-0.48515 -1.861927,-1.44234 -1.429225,-1.70458 -1.560346,-4.23523 v -6.56919 h 1.075197 v 5.91358 l 0.01311,0.41959 q 0,1.10143 0.340916,2.07172 0.354028,0.9703 0.9703,1.70459 0.642495,0.7605 1.468561,1.14075 0.839178,0.38026 1.717693,0.38026 0.878515,0 1.704581,-0.38026 0.839178,-0.38025 1.481674,-1.14075 1.298103,-1.57346 1.298103,-3.77631 l 0.01311,-0.41959 v -5.91358 h 1.075197 v 6.59542 q -0.131121,2.51753 -1.560346,4.209 -0.826066,0.95719 -1.875039,1.44234 -1.035861,0.47203 -2.137282,0.47203 z"
         style="font-weight:500;font-size:26.8537px;font-family:'Brother 1816';-inkscape-font-specification:'Brother 1816 Medium';letter-spacing:-0.978958px;fill:#525252;fill-rule:evenodd;stroke-width:10.8662;paint-order:markers stroke fill;fill-opacity:1"
         id="path16609" /><path
         d="m 52.680055,-323.85946 q 1.52101,0 2.792889,-0.76051 1.27188,-0.7605 2.019273,-2.03238 0.760505,-1.28499 0.760505,-2.84534 0,-1.56035 -0.747393,-2.84534 -0.747393,-1.28499 -2.019273,-2.03238 -1.271879,-0.76051 -2.806001,-0.76051 -1.547235,0 -2.819115,0.76051 -1.271879,0.74739 -2.019272,2.03238 -0.747393,1.28499 -0.747393,2.84534 0,1.53412 0.747393,2.81911 0.747393,1.285 2.00616,2.05861 1.27188,0.76051 2.832227,0.76051 z m -5.625116,5.69068 h -1.075197 v -17.39984 h 1.075197 v 2.42575 q 0.616271,-1.15387 2.163506,-2.11106 1.560347,-0.9703 3.46161,-0.9703 1.835702,0 3.3436,0.90474 1.507898,0.90474 2.399525,2.43886 0.904739,1.52101 0.904739,3.38294 0,1.84881 -0.904739,3.38294 -0.891627,1.52101 -2.399525,2.43886 -1.507898,0.90474 -3.3436,0.90474 -1.927488,0 -3.474722,-0.9703 -1.547235,-0.98341 -2.150394,-2.11106 z"
         style="font-weight:normal;font-size:26.8537px;font-family:Queensides;-inkscape-font-specification:Queensides;letter-spacing:-1.48167px;fill:#525252;fill-rule:evenodd;stroke-width:10.8662;paint-order:markers stroke fill;fill-opacity:1"
         id="path16611" /></g></g></svg>
