<?xml version="1.0" encoding="UTF-8" standalone="no"?>
<!-- Created with Inkscape (http://www.inkscape.org/) -->

<svg
   width="14.031185mm"
   height="14.211018mm"
   viewBox="0 0 14.031185 14.211017"
   version="1.1"
   id="svg939"
   xml:space="preserve"
   inkscape:version="1.2 (dc2aedaf03, 2022-05-15)"
   sodipodi:docname="twitter.svg"
   xmlns:inkscape="http://www.inkscape.org/namespaces/inkscape"
   xmlns:sodipodi="http://sodipodi.sourceforge.net/DTD/sodipodi-0.dtd"
   xmlns="http://www.w3.org/2000/svg"
   xmlns:svg="http://www.w3.org/2000/svg"><sodipodi:namedview
     id="namedview941"
     pagecolor="#ffffff"
     bordercolor="#000000"
     borderopacity="0.25"
     inkscape:showpageshadow="2"
     inkscape:pageopacity="0.0"
     inkscape:pagecheckerboard="0"
     inkscape:deskcolor="#d1d1d1"
     inkscape:document-units="mm"
     showgrid="false"
     inkscape:zoom="6.2787318"
     inkscape:cx="87.915844"
     inkscape:cy="53.513992"
     inkscape:window-width="1920"
     inkscape:window-height="1009"
     inkscape:window-x="-8"
     inkscape:window-y="-8"
     inkscape:window-maximized="1"
     inkscape:current-layer="layer1" /><defs
     id="defs936"><clipPath
       clipPathUnits="userSpaceOnUse"
       id="clipPath296"><path
         d="M 0,0 H 842 V 596 H 0 Z"
         id="path294" /></clipPath><clipPath
       clipPathUnits="userSpaceOnUse"
       id="clipPath310"><path
         d="M 0,0 H 842 V 596 H 0 Z"
         id="path308" /></clipPath><clipPath
       clipPathUnits="userSpaceOnUse"
       id="clipPath324"><path
         d="M 0,0 H 842 V 596 H 0 Z"
         id="path322" /></clipPath><clipPath
       clipPathUnits="userSpaceOnUse"
       id="clipPath338"><path
         d="M 0,0 H 842 V 596 H 0 Z"
         id="path336" /></clipPath></defs><g
     inkscape:label="Layer 1"
     inkscape:groupmode="layer"
     id="layer1"
     transform="translate(151.04673,-113.91946)"><g
       id="g893"
       transform="matrix(0.35277777,0,0,0.35277777,-307.67179,4.2693128)"><g
         id="g288"><g
           id="g290"><g
             id="g292"
             clip-path="url(#clipPath296)"><g
               id="g298"><path
                 id="path300"
                 style="fill:#0ea1cb;fill-opacity:1;fill-rule:nonzero;stroke:none"
                 d="m 463.86329,310.81933 c -10.98399,0 -19.88672,9.02061 -19.88672,20.1416 0,11.12499 8.90273,20.1416 19.88672,20.1416 10.98099,0 19.88672,-9.01661 19.88672,-20.1416 0,-11.12099 -8.90573,-20.1416 -19.88672,-20.1416 z m -10.08252,9.84082 h 6.0044 l 5.20752,7.57324 6.51562,-7.57324 h 1.77686 l -7.5044,8.72314 8.16065,11.87842 h -6.00293 l -5.49756,-7.99951 -6.87744,7.99951 h -1.78272 l 7.87061,-9.14941 z m 2.42285,1.34033 6.34278,9.07324 0.79687,1.14112 5.43311,7.76953 h 2.73193 l -6.65625,-9.52002 -0.79687,-1.13965 -5.1211,-7.32422 z" /></g></g></g></g><g
         id="g302"><g
           id="g304"><g
             id="g306"
             clip-path="url(#clipPath310)"><g
               id="g312"><path
                 id="path314"
                 style="fill:#0ea1cb;fill-opacity:1;fill-rule:nonzero;stroke:none"
                 d="m 543.41017,310.81933 c -10.97999,0 -19.88672,9.02061 -19.88672,20.1416 0,11.12099 8.90673,20.1416 19.88672,20.1416 10.98499,0 19.88672,-9.02061 19.88672,-20.1416 0,-11.12099 -8.90173,-20.1416 -19.88672,-20.1416 z m -3.36328,11.10205 c 0.234,0.418 0.44042,0.84474 0.62842,1.28174 1.81199,-0.273 3.65233,-0.273 5.46533,0 0.183,-0.437 0.39488,-0.86374 0.62988,-1.28174 1.699,0.289 3.35041,0.79711 4.92041,1.51611 2.7,3.945 4.03946,8.39816 3.54346,13.53516 -1.824,1.347 -3.86755,2.37183 -6.03955,3.02783 -0.488,-0.656 -0.92246,-1.35301 -1.29346,-2.08301 0.707,-0.266 1.39106,-0.58965 2.03906,-0.97265 -0.168,-0.117 -0.33111,-0.242 -0.49511,-0.375 -3.824,1.797 -8.24593,1.797 -12.06592,0 -0.164,0.121 -0.32898,0.25 -0.50098,0.375 0.648,0.383 1.32913,0.70772 2.03613,0.96972 -0.371,0.731 -0.80545,1.42994 -1.29345,2.08594 -2.168,-0.656 -4.21116,-1.68376 -6.03516,-3.03076 -0.422,-4.43 0.42167,-8.9233 3.53467,-13.5293 1.57,-0.718 3.22727,-1.23004 4.92627,-1.51904 z m -0.60205,7.55566 c -1.207,0 -2.14453,1.07463 -2.14453,2.39063 0,1.313 0.97292,2.37891 2.14892,2.37891 1.199,0 2.12453,-1.06591 2.14453,-2.37891 0.023,-1.316 -0.94192,-2.39063 -2.14892,-2.39063 z m 7.93066,0 c -1.211,0 -2.14892,1.07463 -2.14892,2.39063 0,1.313 0.96892,2.37891 2.14892,2.37891 1.195,0 2.12014,-1.06591 2.14014,-2.37891 0.023,-1.316 -0.93314,-2.39063 -2.14014,-2.39063 z" /></g></g></g></g><g
         id="g316"><g
           id="g318"><g
             id="g320"
             clip-path="url(#clipPath324)"><g
               id="g326"><path
                 id="path328"
                 style="fill:#0ea1cb;fill-opacity:1;fill-rule:nonzero;stroke:none"
                 d="m 622.78859,310.81933 c -10.89099,0 -19.71387,9.02061 -19.71387,20.1416 0,11.12099 8.82288,20.1416 19.71387,20.1416 10.88699,0 19.71533,-9.02061 19.71533,-20.1416 0,-11.12099 -8.82834,-20.1416 -19.71533,-20.1416 z m -6.96387,8.07861 9.51563,2.56641 9.51123,2.5664 -5.10205,18.9917 -19.02686,-5.13134 z m 5.01856,8.6836 -1.4209,5.29687 5.30713,1.46631 1.42236,-5.30127 z" /></g></g></g></g><g
         id="g330"><g
           id="g332"><g
             id="g334"
             clip-path="url(#clipPath338)"><g
               id="g340"><path
                 id="path342"
                 style="fill:#0ea1cb;fill-opacity:1;fill-rule:nonzero;stroke:none"
                 d="m 695.62832,310.81989 c -10.99999,-0.011 -19.54249,8.83243 -19.91749,19.27442 -0.426,11.85099 8.8913,21.01832 19.86329,21.00732 10.92599,0.011 19.91343,-8.99703 19.89843,-20.02002 -0.016,-11.50399 -9.07125,-20.24972 -19.84423,-20.26172 z m -12.23292,10.97315 h 24.37794 c 0,1.617 -0.10074,3.23052 -0.32374,4.83252 h -18.67675 c 0,0 0.0208,2.89081 1.50879,5.88281 1.52399,2.879 3.62779,4.72633 5.36279,5.46533 1.793,-0.84 3.52424,-2.29433 4.46924,-3.86133 h -4.92334 c -1.273,-1.058 -2.27196,-2.80705 -2.50196,-4.83105 h 14.43604 c -0.711,3.254 -2.22218,6.21466 -3.65918,8.09766 -2,2.61299 -4.70709,4.60851 -7.80908,5.74951 h -0.0469 c -5.17899,-2.063 -7.9642,-5.31296 -9.8042,-8.98096 -1.18,-2.351 -2.40967,-6.6165 -2.40967,-12.35449 z" /><path
                 id="path1181"
                 style="fill:#0ea1cb;fill-opacity:1;fill-rule:nonzero;stroke:none"
                 d="m 741.23916,310.81989 c -10.99999,-0.011 -19.54249,8.83243 -19.91748,19.27442 -0.426,11.85099 8.89129,21.01832 19.86328,21.00732 10.92599,0.011 19.91343,-8.99703 19.89843,-20.02002 -0.016,-11.50399 -9.07124,-20.24972 -19.84423,-20.26172 z m -10.17041,10.1836 c 1.05069,0.0159 2.34879,0.67536 3.33984,1.41943 2.74712,2.06234 5.70175,6.24473 6.78662,8.48877 1.08495,-2.24387 4.04088,-6.42645 6.78809,-8.48877 1.98217,-1.48813 5.19287,-2.63847 5.19287,1.02539 0,0.73176 -0.41899,6.14628 -0.66504,7.02539 -0.8553,3.05646 -3.97182,3.83657 -6.74414,3.36475 4.84596,0.82474 6.07832,3.55666 3.41601,6.28857 -5.05624,5.18845 -7.26717,-1.30181 -7.83398,-2.96484 -0.10383,-0.3049 -0.1531,-0.44796 -0.15381,-0.32666 -7.3e-4,-0.12104 -0.0485,0.0203 -0.15234,0.32666 -0.56656,1.66303 -2.77745,8.15346 -7.83399,2.96484 -2.66235,-2.73191 -1.43003,-5.46397 3.41602,-6.28857 -2.77241,0.47182 -5.88897,-0.30829 -6.74414,-3.36475 -0.24608,-0.87919 -0.66504,-6.29377 -0.66504,-7.02539 0,-1.83193 0.80233,-2.46071 1.85303,-2.44482 z" /></g></g></g></g></g></g></svg>
